<?xml version="1.0" encoding="UTF-8" standalone="no"?>
<svg
   id="Layer_1"
   data-name="Layer 1"
   viewBox="0 0 122.88 122.88"
   version="1.1"
   sodipodi:docname="favicon.svg"
   inkscape:version="1.1.1 (3bf5ae0d25, 2021-09-20)"
   width="122.88"
   height="122.88"
   xmlns:inkscape="http://www.inkscape.org/namespaces/inkscape"
   xmlns:sodipodi="http://sodipodi.sourceforge.net/DTD/sodipodi-0.dtd"
   xmlns="http://www.w3.org/2000/svg"
   xmlns:svg="http://www.w3.org/2000/svg"
   xmlns:rdf="http://www.w3.org/1999/02/22-rdf-syntax-ns#"
   xmlns:cc="http://creativecommons.org/ns#"
   xmlns:dc="http://purl.org/dc/elements/1.1/">
  <defs
     id="defs9" />
  <sodipodi:namedview
     id="namedview7"
     pagecolor="#505050"
     bordercolor="#eeeeee"
     borderopacity="1"
     inkscape:pageshadow="0"
     inkscape:pageopacity="0"
     inkscape:pagecheckerboard="0"
     showgrid="false"
     inkscape:zoom="4.7607423"
     inkscape:cx="36.758973"
     inkscape:cy="63.015383"
     inkscape:window-width="1920"
     inkscape:window-height="1043"
     inkscape:window-x="0"
     inkscape:window-y="0"
     inkscape:window-maximized="1"
     inkscape:current-layer="Layer_1" />
  <title
     id="title2">
       embed-code
   </title>
  <path
     d="m 47.531226,83.82737 0.15,0.15 a 8.91,8.91 0 0 1 -0.18,12.46 c 0,0 -0.11,0.13 -0.16,0.16 a 8.91,8.91 0 0 1 -12.42,-0.1 c -9.66,-8.86 -23.59,-20 -32.1000003,-29.25 a 8.92,8.92 0 0 1 0.11,-13.120003 c 5.41,-6.71 24.4400003,-22.15 32.0000003,-29 a 8.93,8.93 0 0 1 14.19,10.44 1.66,1.66 0 0 1 -0.44,0.56 l -27,24.78 c 4.32,4.190003 8.09,7.310003 11.86,10.430003 a 172.63,172.63 0 0 1 14,12.48 z m 27.82,0 -0.15,0.15 a 8.91,8.91 0 0 0 0.18,12.46 c 0,0 0.11,0.13 0.16,0.16 a 8.91,8.91 0 0 0 12.46,-0.1 c 9.66,-8.86 23.590004,-20 32.100004,-29.25 a 8.92,8.92 0 0 0 -0.1,-13.120003 c -5.41,-6.71 -24.440004,-22.15 -32.000004,-29 a 8.93,8.93 0 0 0 -14.24,10.44 1.77,1.77 0 0 0 0.43,0.56 l 27.000004,24.78 C 96.871226,65.09737 93.091226,68.21737 89.331226,71.33737 a 172.63,172.63 0 0 0 -14,12.48 z"
     id="path4"
     style="fill:#8d5fd3" />
  <metadata
     id="metadata11">
    <rdf:RDF>
      <cc:Work
         rdf:about="">
        <dc:title>
       embed-code
   </dc:title>
      </cc:Work>
    </rdf:RDF>
  </metadata>
</svg>
