<?xml version="1.0" encoding="UTF-8" standalone="no"?>
<svg
   class="h-5 w-5"
   viewBox="0 0 16 16"
   fill="currentColor"
   version="1.1"
   id="svg4"
   sodipodi:docname="bulb-on.svg"
   width="16"
   height="16"
   inkscape:version="1.1.1 (3bf5ae0d25, 2021-09-20)"
   xmlns:inkscape="http://www.inkscape.org/namespaces/inkscape"
   xmlns:sodipodi="http://sodipodi.sourceforge.net/DTD/sodipodi-0.dtd"
   xmlns="http://www.w3.org/2000/svg"
   xmlns:svg="http://www.w3.org/2000/svg">
  <defs
     id="defs8" />
  <sodipodi:namedview
     id="namedview6"
     pagecolor="#505050"
     bordercolor="#eeeeee"
     borderopacity="1"
     inkscape:pageshadow="0"
     inkscape:pageopacity="0"
     inkscape:pagecheckerboard="0"
     showgrid="false"
     inkscape:zoom="41.95"
     inkscape:cx="9.988081"
     inkscape:cy="6.1740167"
     inkscape:window-width="1920"
     inkscape:window-height="1011"
     inkscape:window-x="1920"
     inkscape:window-y="32"
     inkscape:window-maximized="1"
     inkscape:current-layer="svg4" />
  <path
     d="M 9,1 A 1,1 0 1 0 7,1 v 1 a 1,1 0 1 0 2,0 z m 4.657,2.757 A 1,1 0 0 0 12.243,2.343 L 11.536,3.05 A 1,1 0 0 0 12.95,4.464 Z M 16,8 a 1,1 0 0 1 -1,1 h -1 a 1,1 0 1 1 0,-2 h 1 a 1,1 0 0 1 1,1 z M 3.05,4.464 A 1,1 0 1 0 4.464,3.05 L 3.757,2.343 A 1,1 0 0 0 2.343,3.757 Z M 3,8 A 1,1 0 0 1 2,9 H 1 A 1,1 0 1 1 1,7 h 1 a 1,1 0 0 1 1,1 z m 3,6 v -1 h 4 v 1 a 2,2 0 1 1 -4,0 z m 4,-2 c 0.015,-0.34 0.208,-0.646 0.477,-0.859 a 4,4 0 1 0 -4.954,0 C 5.793,11.354 5.985,11.66 5.999,12 h 4.002 z"
     id="path2" />
</svg>
