<?xml version="1.0" encoding="UTF-8" standalone="no"?>
<svg
   id="Layer_1"
   data-name="Layer 1"
   viewBox="0 0 122.88 76.5"
   version="1.1"
   sodipodi:docname="logo.svg"
   inkscape:version="1.1.1 (3bf5ae0d25, 2021-09-20)"
   xmlns:inkscape="http://www.inkscape.org/namespaces/inkscape"
   xmlns:sodipodi="http://sodipodi.sourceforge.net/DTD/sodipodi-0.dtd"
   xmlns="http://www.w3.org/2000/svg"
   xmlns:svg="http://www.w3.org/2000/svg"
   xmlns:rdf="http://www.w3.org/1999/02/22-rdf-syntax-ns#"
   xmlns:cc="http://creativecommons.org/ns#"
   xmlns:dc="http://purl.org/dc/elements/1.1/">
  <defs
     id="defs9" />
  <sodipodi:namedview
     id="namedview7"
     pagecolor="#505050"
     bordercolor="#eeeeee"
     borderopacity="1"
     inkscape:pageshadow="0"
     inkscape:pageopacity="0"
     inkscape:pagecheckerboard="0"
     showgrid="false"
     inkscape:zoom="9.5214846"
     inkscape:cx="65.535999"
     inkscape:cy="40.014768"
     inkscape:window-width="1920"
     inkscape:window-height="1043"
     inkscape:window-x="0"
     inkscape:window-y="0"
     inkscape:window-maximized="1"
     inkscape:current-layer="Layer_1" />
  <title
     id="title2">
       embed-code
   </title>
  <path
     d="M47.53,61.26l.15.15a8.91,8.91,0,0,1-.18,12.46s-.11.13-.16.16a8.91,8.91,0,0,1-12.42-.1c-9.66-8.86-23.59-20-32.1-29.25a8.92,8.92,0,0,1,.11-13.12c5.41-6.71,24.44-22.15,32-29A8.93,8.93,0,0,1,49.12,13a1.66,1.66,0,0,1-.44.56l-27,24.78c4.32,4.19,8.09,7.31,11.86,10.43a172.63,172.63,0,0,1,14,12.48Zm27.82,0-.15.15a8.91,8.91,0,0,0,.18,12.46s.11.13.16.16A8.91,8.91,0,0,0,88,73.93c9.66-8.86,23.59-20,32.1-29.25A8.92,8.92,0,0,0,120,31.56c-5.41-6.71-24.44-22.15-32-29A8.93,8.93,0,0,0,73.76,13a1.77,1.77,0,0,0,.43.56l27,24.78c-4.32,4.19-8.1,7.31-11.86,10.43a172.63,172.63,0,0,0-14,12.48Z"
     id="path4"
     style="fill:#8d5fd3" />
  <metadata
     id="metadata11">
    <rdf:RDF>
      <cc:Work
         rdf:about="">
        <dc:title>
       embed-code
   </dc:title>
      </cc:Work>
    </rdf:RDF>
  </metadata>
</svg>
